<svg width="375" height="131" viewBox="0 0 375 131" fill="none" xmlns="http://www.w3.org/2000/svg">
<g clip-path="url(#clip0_7_8)">
<g filter="url(#filter0_i_7_8)">
<rect width="375" height="130" rx="65" fill="url(#paint0_linear_7_8)"/>
</g>
<g opacity="0.35">
<path d="M170.071 -23.083C168.868 -24.0361 167.598 -24.2583 167.059 -24.3465C163.995 -24.847 162.417 -22.9023 161.174 -23.7629C160.243 -24.4069 161 -25.5628 160.066 -27.6661C159.964 -27.8978 158.728 -30.5734 155.873 -31.6487C153.507 -32.5395 151.307 -31.8514 150.418 -31.5738C147.06 -30.5237 146.038 -28.251 144.866 -28.7628C143.828 -29.2161 144.358 -31.0871 143.295 -34.1474C143.077 -34.7769 142.186 -37.1888 140.3 -39.107C139.151 -40.2755 137.839 -41.0486 136.569 -41.5591C131.57 -39.306 126.865 -36.4478 122.455 -33.1684C117.576 -29.5409 111.829 -31.6285 106.188 -31.0884C102.299 -30.7157 98.9994 -28.7017 95.958 -26.378C94.5572 -25.3078 93.837 -24.1992 92.7202 -22.8872C92.4394 -22.5579 91.9609 -21.8962 91.4636 -21.7666C90.3398 -21.4726 88.5714 -22.3413 87.1801 -23.054C87.5012 -22.0738 88.1037 -21.5701 87.9526 -21.3939C87.7826 -21.1956 86.9749 -21.781 85.8448 -22.1846C84.485 -22.67 83.3317 -22.6442 82.614 -22.641C82.0637 -22.6385 79.8105 -22.5799 77.5995 -21.244C77.5523 -21.2157 77.4825 -21.1729 77.3931 -21.1169C76.9499 -20.8367 73.0025 -18.2417 73.0202 -14.1458C73.0302 -11.7636 74.3794 -9.50599 76.1107 -8.28276C78.1 -6.87696 79.2565 -7.78164 83.212 -6.20523C85.5622 -5.26846 85.2902 -4.89513 87.4489 -4.08804C90.6257 -2.9007 93.3938 -2.8944 95.0124 -2.90574C97.044 -2.91959 99.3897 -2.93533 102.147 -3.96717C105.206 -5.1117 107.003 -6.84486 109.322 -6.13661C109.932 -5.95026 109.961 -5.76266 110.927 -5.47054C111.434 -5.31756 113.146 -4.83847 115.397 -5.00971C119.138 -5.29427 120.003 -7.04317 122.542 -7.28869C125.476 -7.57262 126.993 -5.13058 129.789 -3.98038C139.645 0.0733185 153.631 -2.18301 157.681 -8.80278C158.467 -10.0871 158.608 -11.0931 159.909 -12.0771C163.062 -14.4618 166.635 -11.9304 169.946 -14.3485C170.264 -14.5802 172.186 -16.0313 172.361 -18.3607C172.563 -21.0514 170.286 -22.9136 170.071 -23.083Z" fill="#F2F7F8"/>
<path d="M167.952 -21.3479C165.429 -22.7909 162.601 -21.8761 161.719 -21.5909C158.998 -20.7102 159.119 -19.4423 157.02 -19.142C154.594 -18.7944 154.045 -20.4344 151.565 -20.1184C149.284 -19.8282 149.137 -18.3393 146.723 -17.9955C145.048 -17.7569 144.8 -18.4287 141.79 -18.9619C140.543 -19.1829 137.798 -19.6456 134.646 -19.057C133.384 -18.8209 131.488 -18.3109 129.345 -17.0764C128.634 -15.9363 127.044 -13.3161 123.839 -12.1249C121.399 -11.2184 118.572 -10.9735 116.007 -11.1428C114.198 -11.2624 106.544 -12.2395 105.738 -15.1821C103.316 -13.25 100.799 -11.2662 97.7302 -10.5901C96.2048 -10.2539 92.945 -9.57713 89.6222 -11.2687C88.0351 -12.0765 86.9743 -13.1524 86.3466 -13.9066C85.4659 -13.4854 83.8549 -12.8842 81.8743 -13.0932C77.1432 -13.5937 74.8384 -18.2448 74.6646 -18.61C74.1503 -17.8866 73.189 -16.3216 73.0215 -14.1458C72.9774 -13.5773 72.7439 -9.66023 75.8759 -6.97141C78.8927 -4.38142 82.5655 -5.04812 83.0213 -5.1394C84.1287 -4.16233 88.7295 -0.331495 95.664 -0.375565C103.491 -0.425299 108.387 -5.37423 109.252 -6.28078C109.639 -5.88354 112.272 -3.26711 116.368 -3.4906C120.28 -3.70402 122.566 -6.345 122.939 -6.79136C124.444 -5.87095 126.757 -4.60176 129.75 -3.53845C132.812 -2.45058 144.154 1.57732 154.48 -4.0402C156.328 -5.0456 159.168 -6.9179 161.916 -10.3597C165.793 -9.02879 169.608 -10.5089 170.835 -13.1222C171.752 -15.0769 171.157 -17.529 170.186 -19.1161C169.922 -19.5442 169.257 -20.6019 167.952 -21.3479Z" fill="#CEEAF0"/>
</g>
<ellipse cx="26" cy="176" rx="136" ry="101" fill="url(#paint1_linear_7_8)"/>
<circle cx="79.5" cy="27.5" r="1.5" fill="#C7C7C7"/>
<circle cx="146.5" cy="29.5" r="1.5" fill="#C7C7C7"/>
<circle cx="244.5" cy="107.5" r="1.5" fill="#C7C7C7"/>
<circle cx="232.5" cy="20.5" r="1.5" fill="#C7C7C7"/>
<circle cx="219.5" cy="48.5" r="1.5" fill="#C7C7C7"/>
<circle cx="174.5" cy="74.5" r="1.5" fill="#C7C7C7"/>
<circle cx="163.5" cy="109.5" r="1.5" fill="#C7C7C7"/>
<circle cx="87.5" cy="61.5" r="1.5" fill="#C7C7C7"/>
<circle cx="40.5" cy="42.5" r="1.5" fill="#C7C7C7"/>
<circle cx="368.5" cy="100.5" r="1.5" transform="rotate(180 368.5 100.5)" fill="#C7C7C7"/>
<circle cx="270.5" cy="22.5" r="1.5" transform="rotate(180 270.5 22.5)" fill="#C7C7C7"/>
<circle cx="282.5" cy="109.5" r="1.5" transform="rotate(180 282.5 109.5)" fill="#C7C7C7"/>
<circle cx="295.5" cy="81.5" r="1.5" transform="rotate(180 295.5 81.5)" fill="#C7C7C7"/>
<circle cx="340.5" cy="55.5" r="1.5" transform="rotate(180 340.5 55.5)" fill="#C7C7C7"/>
<circle cx="351.5" cy="20.5" r="1.5" transform="rotate(180 351.5 20.5)" fill="#C7C7C7"/>
</g>
<defs>
<filter id="filter0_i_7_8" x="-2" y="0" width="377" height="134" filterUnits="userSpaceOnUse" color-interpolation-filters="sRGB">
<feFlood flood-opacity="0" result="BackgroundImageFix"/>
<feBlend mode="normal" in="SourceGraphic" in2="BackgroundImageFix" result="shape"/>
<feColorMatrix in="SourceAlpha" type="matrix" values="0 0 0 0 0 0 0 0 0 0 0 0 0 0 0 0 0 0 127 0" result="hardAlpha"/>
<feOffset dx="-2" dy="4"/>
<feGaussianBlur stdDeviation="7"/>
<feComposite in2="hardAlpha" operator="arithmetic" k2="-1" k3="1"/>
<feColorMatrix type="matrix" values="0 0 0 0 0 0 0 0 0 0 0 0 0 0 0 0 0 0 0.3 0"/>
<feBlend mode="normal" in2="shape" result="effect1_innerShadow_7_8"/>
</filter>
<linearGradient id="paint0_linear_7_8" x1="55.6421" y1="156.5" x2="382.11" y2="16.5895" gradientUnits="userSpaceOnUse">
<stop stop-color="#041326"/>
<stop offset="1" stop-color="#0E314C"/>
</linearGradient>
<linearGradient id="paint1_linear_7_8" x1="26" y1="75" x2="26" y2="277" gradientUnits="userSpaceOnUse">
<stop stop-color="#0C2F45"/>
<stop offset="1" stop-color="#151F25"/>
</linearGradient>
<clipPath id="clip0_7_8">
<rect width="375" height="130.24" rx="65.1201" fill="white"/>
</clipPath>
</defs>
</svg>
