<svg width="100%" height="100%" viewBox="0 0 1024 1024" version="1.1" xmlns="http://www.w3.org/2000/svg" xmlns:xlink="http://www.w3.org/1999/xlink" xml:space="preserve" xmlns:serif="http://www.serif.com/" style="fill-rule:evenodd;clip-rule:evenodd;stroke-linejoin:round;stroke-miterlimit:2;fill:#ff0885">
    <g transform="matrix(1,0,0,1,-2148,0)">
        <g id="Artboard-Black" serif:id="Artboard Black" transform="matrix(1,0,0,1,1074,0)">
            <rect x="1074" y="0" width="1024" height="1024" style="fill:none;"/>
            <clipPath id="_clip1">
                <rect x="1074" y="0" width="1024" height="1024"/>
            </clipPath>
            <g clip-path="url(#_clip1)">
                <g transform="matrix(2.91362,0,0,2.89653,104.483255,-968.578626)">
                    <path d="M506.5,354.444L511.499,354.51C511.261,357.283 511.176,404.752 511.268,407.58C511.357,410.341 521.344,401.65 523.232,400.157C534.22,391.47 527.641,387.819 530.553,384.537C535.521,378.938 532.915,395.583 532.763,396.548C532.338,399.265 517.752,409.769 512.907,413.949C508.431,417.811 511.079,454.058 511.334,457.538C511.541,460.383 514.624,458.665 516.862,465.383C520.808,477.23 518.941,430.018 519.483,422.499C519.975,415.692 549.715,404.831 554.055,393.332C557.217,384.954 555.579,383.92 561.503,377.275C563.524,375.008 559.742,389.487 559.373,390.531C554.251,404.992 551.626,402.984 526.582,420.611C522.354,423.587 523.78,434.062 523.767,441.497C523.738,457.38 522.226,476.991 524.56,466.533C529.648,443.742 532.177,443.779 529.98,436.415C528.744,432.269 535.215,427.112 539.255,431.71C544.207,437.346 535.192,442.013 534.98,442.69C527.292,467.3 526.808,469.771 531.498,471.539L534.46,473.731C544.416,479.027 543.534,489.452 550.784,481.983C554.637,478.063 578.758,453.142 580.57,452.854C582.36,452.569 607.013,456.37 618.476,457.697C624.707,458.418 640.249,445.342 643.612,447.387C647.944,450.022 627.207,459.391 625.434,460.381C621.807,462.407 608.099,491.113 601.174,500.243C598.369,503.942 547.332,499.27 554.203,503.845C557.862,506.281 558.372,505.19 561.671,508.33C564.037,510.583 564.464,510.044 602.496,509.34C609.602,509.209 620.736,486.229 625.43,485.246C630.132,484.262 631.251,484.386 631.132,479.484C631.106,478.413 632.045,476.646 644.286,481.97C649.892,484.408 642.877,488.624 637.17,493.083C632.507,496.726 633.026,490.66 632.183,489.795C627.885,485.382 618.375,499.141 612.471,507.487C612.137,507.958 611.979,509.199 619.488,509.164C620.601,511.609 620.797,511.694 619.529,513.935L612.183,514.123C610.23,513.979 610.401,513.886 608.5,513.981L607.5,513.994L606.391,514.635C600.614,512.939 563.554,513.504 562.547,514.55C559.105,518.131 559.074,517.897 554.656,519.731C544.824,523.81 599.028,519.876 601.074,522.842C611.625,538.137 621.573,557.264 625.668,559.165C627.202,559.877 647.263,567.359 644.562,570.549C642.536,572.943 625.128,561.753 619.575,562.912C582.132,570.721 581.731,571.978 579.824,570.12C564.487,555.181 564.788,555.179 549.602,540.359C547.739,538.395 547.531,536.473 545.767,538.713C540.708,545.136 540.513,544.703 534.442,550.149L531.586,551.931C529.221,553.013 529.355,552.869 527.314,554.397C524.165,554.815 524.475,555.254 523.485,557.498C524.427,598.374 522.034,599.721 526.851,603.015C553.36,621.142 556.008,619.042 560.002,629.691C560.414,630.789 567.752,647.139 564.415,648.123C560.385,649.31 557.905,628.166 551.274,623.859C538.157,615.339 538.212,615.62 525.183,606.984C517.444,601.855 519.803,599.945 519.414,569.5C519.402,568.519 519.187,551.699 517.336,557.406C515.162,564.107 511.46,562.02 511.219,566.444C509.028,606.66 511.91,608.989 514.706,611.249C526.971,621.161 531.755,620.961 532.939,633.4C530.322,633.755 530.453,633.959 527.725,633.793C530.999,628.059 523.793,623.887 513.447,615.575C510.12,612.903 511.155,617.567 511.518,668.877L507.442,668.791C504.695,660.452 509.699,611.61 504.499,615.499C500.062,618.818 488.741,626.694 488.28,629.444C486.748,638.589 488.465,641.213 484.558,640.16C482.558,639.62 472.76,634.524 495.754,616.809C504.116,610.367 506.759,611.206 506.777,600.502C506.833,567.691 507.544,566.848 502.63,562.359C502.101,561.876 498.684,551.63 498.502,558.5C497.392,600.18 500.14,601.94 494.175,606.031C473.062,620.509 466.472,621.917 462.997,631.675C462.392,633.374 458.05,650.519 454.395,648.656C452.6,647.74 453,646.956 461.184,624.39C463.021,619.327 494.034,604.208 494.087,598.491C494.454,558.592 495.914,554.306 493.876,556.932C493.728,557.123 486.84,583.314 486.886,583.473C490.997,597.658 475.8,592.912 477.763,586.582C479.053,582.42 481.96,584.52 483.176,580.4C483.786,578.336 490.539,555.456 490.463,554.505C490.362,553.226 489.945,553.586 487.559,552.256C487.176,552.036 487.209,552.185 482.529,549.974C472.698,540.132 473.018,536.956 468.644,539.698C441.575,566.992 441.592,566.891 439.25,569.266C435.918,572.646 435.086,570.457 399.53,565.315C393.069,564.381 376.998,577.309 374.664,576.008C369.009,572.858 375.471,572.47 391.274,563.132C396.043,560.314 400.227,549.338 414.974,525.804C418.737,519.799 420.628,522.606 462.571,521.72C467.362,521.619 458.233,517.497 457.908,517.106C454.827,513.399 454.079,513.627 416.505,513.797C406.877,513.84 398.436,537.086 392.564,537.836C387.253,538.514 386.634,539.024 386.447,544.486C386.337,547.718 371.727,539.723 371.443,539.583C368.01,537.884 383.793,525.242 384.762,529.403C385.005,530.444 385.096,531.519 385.367,532.553C385.914,534.638 391.054,539.181 406.069,515.302C407.383,513.213 400.113,513.93 399.586,513.981C398.048,514.133 389.832,531.11 379.373,513.623C379.426,513.299 379.721,511.498 379.523,509.522C391.545,492.367 395.157,509.295 399.497,509.532C399.998,509.559 407.171,509.95 405.442,507.53C393.739,491.144 392.285,490.834 390.511,490.456C376.848,487.546 374.454,489.334 374.893,485.512C375.189,482.935 392.709,483.326 399.095,491.809C402.114,495.819 404.574,499.197 405.045,499.844C410.145,506.847 408.887,509.52 417.5,509.524C454.455,509.542 454.996,509.664 457.801,506.767C459.702,504.803 469.401,501.762 462.479,501.783C425.877,501.895 418.505,502.909 415.995,499.17C406.688,485.308 395.84,465.182 393.235,463.972C391.996,463.396 368.005,454.757 374.59,451.818C376.934,450.772 391.084,461.539 400.558,459.783C436.712,453.081 436.984,452.309 438.376,453.647C440.823,455.997 463.376,477.655 468.478,483.522C473.166,488.629 472.58,482.307 477.903,477.927C478.343,477.565 478.286,477.646 483.504,473.524L486.527,471.67C494.556,468.154 489.325,465.712 486.949,457.373C483.66,445.831 486.061,444.34 479.716,440.192C469.832,433.731 489.089,424.824 488.095,435.507C487.855,438.092 486.369,439.741 486.825,441.435C492.817,463.692 495.553,472.487 495.064,465.443C492.449,427.738 498.157,424.869 489.161,419C476.697,410.868 461.185,402.052 460.262,399.588C456.228,388.818 450.288,375.881 454.502,375.711C458.387,375.554 458.255,394.201 468.793,401.051C490.856,415.392 498.453,417.558 498.481,425.5C498.548,444.66 497.376,478.176 501.285,464.439C502.545,460.014 506.488,459.339 506.644,457.535C506.783,455.924 507.106,418.252 506.459,415.515C505.18,410.113 485.648,405.323 484.697,392.484C484.383,388.259 476.986,390.81 478.234,387.439C482.522,375.848 484.889,373.408 488.233,377.711C493.241,384.155 498.207,387.035 490.413,389.25C488.511,389.79 487.62,394.705 490.769,397.147C495.675,400.953 506.808,410.742 506.829,406.545C506.959,380.445 507.082,380.616 506.5,354.444ZM467.238,493.268C471.013,485.643 465.416,486.551 443.851,465.139C437.951,459.282 438.627,456.439 430.577,457.943C401.191,463.433 399.22,463.251 400.204,465.555C400.644,466.585 418.397,496.011 419.818,497.05C420.499,497.548 462.625,498.548 464.742,496.957C455.436,493.099 431.909,492.177 428.981,483.338C426.886,477.011 427.111,475.433 420.488,475.789C410.812,476.311 428.25,464.953 431.13,474.612C433.206,481.578 431.469,483.474 438.487,485.543C461.076,492.206 464.891,492.863 467.238,493.268ZM553.57,525.855C555.325,526.984 555.496,527.093 578.433,533.758C590.138,537.158 588.024,539.976 590.312,545.577C591.858,549.36 597.174,547.392 598.455,547.67C603.494,548.762 591.052,559.636 585.974,546.341C585.266,544.488 584.781,542.552 584.019,540.72C582.961,538.178 581.939,539.803 551.489,529.483C547.398,535.914 551.884,536.141 579.903,564.084C582.845,567.018 585.039,566.074 616.452,559.323C620.906,558.365 599.034,526.214 596.479,525.836C593.083,525.334 593.078,526.148 553.57,525.855ZM551.403,493.662C567,488.476 567.053,489.174 582.672,483.869C586.976,482.407 580.012,469.392 597.53,471.257C601.326,471.661 600.284,475.816 597.503,475.636C587.403,474.984 589.588,479.208 587.658,485.566C586.627,488.96 558.215,495.254 555.585,495.837L558.501,497.555C591.314,496.553 596.893,499.342 600.061,494.221C618.601,464.255 619.374,461.983 616.478,461.598C584.589,457.361 583.235,455.45 576.811,461.835C551.183,487.31 547.814,487.877 551.403,493.662ZM464.487,525.54C434.054,526.48 420.977,523.911 417.987,528.796C416.494,531.236 402.222,554.552 399.867,559.621C398.744,562.038 400.878,562.08 432.556,566.059C438.254,566.774 437.467,564.325 462.744,539.748C467.327,535.292 470.005,534.92 466.282,529.85C455.414,533.394 455.487,533.211 444.505,536.516C434.828,539.428 434.393,539.918 431.309,549.434C428.416,558.366 409.975,547.357 421.488,547.714C429.394,547.959 427.426,544.675 430.377,537.427C431.485,534.706 462.294,528.394 464.487,525.54ZM508.5,473.167C444.3,479.787 469.39,569.212 525.277,547.01C553.281,535.884 562.591,477.942 508.5,473.167Z"/>
                </g>
                <g transform="matrix(2.91362,0,0,2.89653,104.483255,-968.578626)">
                    <path d="M619.585,391.395L622.733,394.304C621.597,395.519 609.345,408.63 609.675,410.476C613.057,429.397 598.407,420.92 595.608,423.629C594.599,424.604 586.922,432.032 583.852,436.647C583.19,437.642 584.053,438.446 598.481,439.676C609.686,440.632 612.48,428.343 615.182,433.642C616.423,436.076 604.723,444.037 604.422,444.052C591.713,444.683 582.484,437.71 574.226,447.251C550.664,474.471 543.488,475.627 550.784,481.983C543.534,489.452 544.416,479.027 534.46,473.731C536.196,472.731 536.196,472.786 536.487,472.486C541.179,471.612 541.972,474.573 545.299,471.231C575.067,441.32 575.753,441.098 575.337,437.509C572.753,415.223 569.077,414.245 575.095,406.206C577.775,402.627 569.913,400.2 573.709,397.832C574.637,397.254 586.911,389.598 586.938,394.415C586.99,403.688 589.486,409.115 580.509,406.774C573.468,404.937 577.98,436.834 581.301,433.264C591.165,422.661 592.589,422.974 592.128,415.522C591.469,404.873 603.226,405.735 604.479,405.827C607.851,406.074 607.292,404.627 619.585,391.395Z"/>
                </g>
                <g transform="matrix(2.91362,0,0,2.89653,104.483255,-968.578626)">
                    <path d="M549.602,540.359C548.254,549.043 549.471,549.125 555.385,555.609C566.72,568.034 578.139,581.395 580.515,581.252C598.327,580.18 599.406,575.82 609.826,583.1C610.447,583.534 625.6,583.104 621.54,593.516C620.392,596.461 608.195,603.028 608.422,588.51C608.534,581.336 580.544,583.727 584.982,588.059C588.191,591.191 588.058,591.143 623.648,628.629L620.668,630.871C615.244,626.767 584.354,593.122 581.274,589.767C577.975,586.174 573.063,620.261 582.414,616.326C583.467,615.883 589.962,613.15 587.707,629.592C587.4,631.829 577.258,627.346 573.838,625.168C571.828,623.888 577.116,619.19 576.111,617.689C570.006,608.567 572.398,607.845 575.693,586.521C576.24,582.979 575.524,582.736 546.35,552.666C544.237,550.489 543.791,552.482 536.664,551.325C535.596,550.317 535.687,550.564 534.442,550.149C539.999,544.393 540.038,544.285 545.767,538.266C547.733,536.201 547.739,538.395 549.602,540.359Z"/>
                </g>
                <g transform="matrix(2.91362,0,0,2.89653,106.483255,-966.578626)">
                    <path d="M397.671,391.73C425.305,418.698 438.027,437.862 438.862,432.659C441.605,415.569 443.682,414.264 436.47,407.405C436.919,407.156 438.339,406.365 441.713,403.697C444.085,411.612 446.091,411.247 445.01,419.443C444.006,427.045 440.128,436.69 445.967,443.075C457.144,455.3 470.444,469.148 472.598,471.391L471.41,473.427C470.719,473.829 470.029,474.231 469.338,474.633C442.173,445.934 440.097,441.741 435.466,442.157C420.663,443.487 414.902,446.35 409.22,440.769C407.167,438.753 394.267,442.263 396.74,429.543C397.229,427.023 410.65,419.737 409.882,434.537C409.463,442.594 435.817,439.13 433.598,436.455C428.808,430.68 405.871,407.715 395.163,394.279L397.671,391.73Z" />
                </g>
                <g transform="matrix(2.91362,0,0,2.89653,105.483255,-969.578626)">
                    <path d="M468.644,539.698C473.018,536.956 472.698,540.132 482.529,549.974C482.183,550.48 481.836,550.985 481.49,551.49C477.287,551.606 477.516,551.659 473.51,551.726C472.954,551.735 441.885,583.245 442.369,586.518C444.794,602.945 451.096,604.105 441.809,617.783C439.428,617.496 439.573,617.562 437.591,616.072C437.683,615.974 444.756,616.413 438.635,590.434C437.573,585.928 436.294,591.724 398.242,631.863L395.095,628.749C432.393,588.068 437.195,585.532 432.61,585.163C416.98,583.907 415.584,581.55 404.073,592.034C402.535,593.435 399.385,591.377 400.573,589.538C407.052,579.504 415.924,579.912 417.476,579.983C427.108,580.426 426.943,580.707 436.515,581.235C439.024,581.373 447.902,571.708 448.774,570.758C461.09,557.349 473.253,549.709 468.644,539.698Z" />
                </g>
                <g transform="matrix(2.91362,0,0,2.89653,101.569634,-968.578626)">
                    <path d="M619.488,509.164C620.406,508.075 630.735,495.829 637.119,506.739C640.711,512.877 655.738,507.749 665.596,510.485L665.606,513.52C640.353,514.067 639.985,512.928 638.537,514.541C630.608,523.376 628.018,522.158 619.529,513.935C620.797,511.694 620.601,511.609 619.488,509.164Z" />
                </g>
                <g transform="matrix(2.91362,0,0,2.89653,103.483255,-967.578626)">
                    <path d="M480.501,471.498C472.815,459.304 471.802,460.336 463.303,448.65C455.131,437.413 461.085,436.476 465.629,423.522C466.845,420.053 456.963,419.95 456.424,417.519C455.165,411.841 467.661,418.006 468.533,418.436C475.24,421.746 469.905,423.781 464.43,438.474C462.547,443.527 474.042,455.97 486.527,471.67C485.519,472.288 484.511,472.906 483.504,473.524C483.043,473.334 482.853,473.849 480.501,471.498Z" />
                </g>
                <g transform="matrix(2.91362,0,0,2.89653,104.483255,-968.578626)">
                    <path d="M531.498,471.539C543.931,455.713 554.749,441.839 553.814,439.412C547.179,422.187 543.096,420.251 548.374,418.231C551.7,416.959 561.824,411.671 561.865,416.508C561.893,419.854 550.61,419.755 551.948,423.418C552.235,424.204 559.759,440.786 558.544,442.522C557.154,444.506 536.604,472.341 536.487,472.486C536.196,472.786 536.196,472.731 534.46,473.731C533.472,473 532.485,472.269 531.498,471.539Z" />
                </g>
                <g transform="matrix(2.91362,0,0,2.89653,104.483255,-968.578626)">
                    <path d="M534.442,550.149C535.687,550.564 535.596,550.317 536.664,551.325C544.635,562.646 548.149,566.406 557.225,578.712C560.206,582.753 554.079,594.736 552.382,599.463C550.708,604.126 562.752,603.169 561.771,607.566C560.872,611.598 550.153,605.619 548.775,605.015C544.66,603.209 551.67,589.025 553.634,583.54C554.868,580.095 552.815,580.373 531.586,551.931C532.538,551.337 533.49,550.743 534.442,550.149Z" />
                </g>
                <g transform="matrix(2.91362,0,0,2.89653,104.483255,-968.578626)">
                    <path d="M482.529,549.974C487.209,552.185 487.176,552.036 487.559,552.256C477.045,562.541 477.964,563.049 468.056,576.153C459.868,586.981 466.45,587.867 471.125,601.636C472.51,605.716 459.964,609.351 458.384,608.691C450.932,605.576 467.483,603.77 465.802,599.396C465.284,598.049 460.899,586.634 459.439,582.515C459.013,581.314 458.54,580.783 481.49,551.49C481.836,550.985 482.183,550.48 482.529,549.974Z" />
                </g>
                <g transform="matrix(2.91362,0,0,2.89653,104.483255,-968.578626)">
                    <path d="M507.442,668.791L511.518,668.877C522.021,668.871 522.392,669.63 522.007,670.385C521.439,671.497 512.029,685.904 511.152,687.247C510.175,688.743 507.791,689.386 496.336,670.538C494.061,666.797 497.972,668.886 507.442,668.791Z" />
                </g>
                <g transform="matrix(2.91362,0,0,2.89653,105.483255,-969.578626)">
                    <path d="M395.095,628.749L398.242,631.863C401.962,635.316 408.506,639.546 402.364,641.001C400.94,641.338 385.805,644.924 384.506,644.951C382.725,644.987 381.236,644.056 385.994,622.729C386.568,620.157 392.695,626.931 395.095,628.749Z" />
                </g>
                <g transform="matrix(2.91362,0,0,2.89653,104.483255,-968.578626)">
                    <path d="M506.5,354.444C499.589,354.348 494.185,355.989 498.025,350.193C507.016,336.623 506.729,331.812 510.27,335.69C511.43,336.961 527.241,354.28 520.525,354.6C519.804,354.634 519.857,354.593 511.499,354.51C509.833,354.488 508.166,354.466 506.5,354.444Z" />
                </g>
                <g transform="matrix(2.91362,0,0,2.89653,104.483255,-968.578626)">
                    <path d="M623.648,628.629C630.815,622.443 631.313,620.617 632.437,622.542C632.913,623.357 636.092,640.902 636.383,642.504C636.875,645.221 634.79,643.609 616.527,640.35C609.129,639.031 615.72,636.438 620.668,630.871L623.648,628.629Z" />
                </g>
                <g transform="matrix(2.91362,0,0,2.89653,101.569634,-968.578626)">
                    <path d="M665.596,510.485C665.494,500.05 664.303,498.595 666.488,498.812C666.709,498.835 684.655,510.055 685.14,511.548C685.531,512.753 684.646,512.563 669.234,523.137C663.035,527.391 665.77,521.005 665.606,513.52L665.596,510.485Z" />
                </g>
                <g transform="matrix(2.91362,0,0,2.89653,104.483255,-968.578626)">
                    <path d="M352.231,510.423L352.214,513.573C352.136,524.773 351.216,525.118 350.443,524.661C336.759,516.57 331.211,512.324 334.81,509.952C350.817,499.399 350.902,499.464 351.479,499.551C353.035,499.783 352.222,500.521 352.231,510.423Z" />
                </g>
                <g transform="matrix(2.91362,0,0,2.89653,104.483255,-968.578626)">
                    <path d="M619.585,391.395C613.572,385.815 608.663,385.018 613.608,382.776C615.299,382.01 631.011,378.201 632.531,377.833C634.144,377.442 634.69,378.516 631.82,398.563C631.121,403.443 623.168,394.677 622.733,394.304L619.585,391.395Z" />
                </g>
                <g transform="matrix(2.91362,0,0,2.89653,104.483255,-968.578626)">
                    <path d="M397.671,391.73L395.163,394.279C392.514,396.751 392.612,396.634 390.074,399.03C385.796,403.07 385.481,398.236 382.425,380.5C381.856,377.197 396.719,381.486 400.529,382.372C408.355,384.192 400.962,388.623 397.671,391.73Z" />
                </g>
                <g transform="matrix(2.91362,0,0,2.89653,104.483255,-968.578626)">
                    <path d="M464.487,525.54C467.201,527.797 465.964,528.325 466.282,529.85C455.414,533.394 455.487,533.211 444.505,536.516C434.828,539.428 434.393,539.918 431.309,549.434C428.416,558.366 409.975,547.357 421.488,547.714C429.394,547.959 427.426,544.675 430.377,537.427C431.485,534.706 462.294,528.394 464.487,525.54Z" />
                </g>
                <g transform="matrix(2.91362,0,0,2.89653,104.483255,-968.578626)">
                    <path d="M467.238,493.268C466.125,495.301 466.349,495.265 464.742,496.957C455.436,493.099 431.909,492.177 428.981,483.338C426.886,477.011 427.111,475.433 420.488,475.789C410.812,476.311 428.25,464.953 431.13,474.612C433.206,481.578 431.469,483.474 438.487,485.543C461.076,492.206 464.891,492.863 467.238,493.268Z" />
                </g>
                <g transform="matrix(2.91362,0,0,2.89653,104.483255,-968.578626)">
                    <path d="M551.403,493.662C567,488.476 567.053,489.174 582.672,483.869C586.976,482.407 580.012,469.392 597.53,471.257C601.326,471.661 600.284,475.816 597.503,475.636C587.403,474.984 589.588,479.208 587.658,485.566C586.627,488.96 558.215,495.254 555.585,495.837C554.887,496.4 554.189,496.963 553.491,497.526C551.787,496.007 551.953,496.011 551.403,493.662Z" />
                </g>
                <g transform="matrix(2.91362,0,0,2.89653,104.483255,-968.578626)">
                    <path d="M553.57,525.855C555.325,526.984 555.496,527.093 578.433,533.758C590.138,537.158 588.024,539.976 590.312,545.577C591.858,549.36 597.174,547.392 598.455,547.67C603.494,548.762 591.052,559.636 585.974,546.341C585.266,544.488 584.781,542.552 584.019,540.72C582.961,538.178 581.939,539.803 551.489,529.483C551.85,527.205 551.987,527.408 553.57,525.855Z" />
                </g>
                <g transform="matrix(2.91362,0,0,2.89653,104.36185,-969.141856)">
                    <path d="M527.314,554.397C533.877,576.239 534.093,579.875 538.312,582.767C547.704,589.204 530.926,598.515 529.89,588.451C529.531,584.973 531.736,583.657 531.137,581.588C528.071,570.986 528.131,571.113 525.444,560.52C525,559.875 524.557,559.23 524.113,558.585L523.485,557.498C524.475,555.254 524.165,554.815 527.314,554.397Z" />
                </g>
                <g transform="matrix(2.91362,0,0,2.89653,102.210674,-970.68881)">
                    <path d="M606.391,514.635L607.5,513.994L608.5,513.981C610.401,513.886 610.23,513.979 612.183,514.123C612.186,514.543 611.631,514.696 623.969,531.117C625.819,533.578 648.485,534.681 642.243,539.158C640.873,540.14 623.471,536.37 622.552,535.432C618.909,531.711 607.637,516.335 606.391,514.635Z" />
                </g>
                <g transform="matrix(2.91362,0,0,2.89653,105.483255,-969.578626)">
                    <path d="M437.591,616.072C439.573,617.562 439.428,617.496 441.809,617.783C442.881,620.702 443.132,620.307 445.397,622.583C448.205,625.403 429.968,633.157 430.327,627.495C430.919,618.144 429.218,612.08 437.591,616.072Z" />
                </g>
                <g transform="matrix(2.91362,0,0,2.89653,104.483255,-968.578626)">
                    <path d="M527.725,633.793C530.453,633.959 530.322,633.755 532.939,633.4C537.804,634.134 541.087,632.811 539.023,637.271C537.073,641.482 533.889,652.286 528.645,645.385C523.84,639.061 520.095,636.142 527.725,633.793Z" />
                </g>
                <g transform="matrix(2.91362,0,0,2.89653,104.483255,-968.578626)">
                    <path d="M441.713,403.697C438.339,406.365 436.919,407.156 436.47,407.405C429.014,409.787 430.57,405.326 430.216,397.52C430.044,393.725 430.975,392.981 434.577,394.287C435.503,394.622 446.27,398.525 445.262,400.389C445.078,400.731 445,400.634 441.713,403.697Z" />
                </g>
                <g transform="matrix(2.91362,0,0,2.89653,104.483255,-968.578626)">
                    <path d="M663.714,438.594C658.541,449.274 659.061,451.677 656.755,450.097C656.351,449.82 648.404,435.461 648.849,434.634C649.249,433.891 665.754,432.119 663.714,438.594Z" />
                </g>
                <g transform="matrix(2.91362,0,0,2.89653,104.483255,-968.578626)">
                    <path d="M355.894,580.676C359.661,574.086 359.811,569.348 362.226,573.657C369.881,587.317 367.73,588.674 366.499,588.538C359.091,587.72 351.717,589.935 355.894,580.676Z" />
                </g>
                <g transform="matrix(2.91362,0,0,2.89653,104.483255,-968.578626)">
                    <path d="M575.572,656.371C575.622,656.412 584.288,661.616 576.515,661.094C566.352,660.412 560.712,672.239 562.239,664.486C564.888,651.047 566.446,651.168 567.409,651.706C568.066,652.073 568.014,652.051 575.572,656.371Z" />
                </g>
                <g transform="matrix(2.91362,0,0,2.89653,104.483255,-968.578626)">
                    <path d="M640.172,406.801C636.503,401.28 641.941,403.591 648.49,403.714C651.514,403.772 648.873,413.743 648.65,414.584C647.795,417.813 646.825,414.924 644.401,412.678C643.515,411.857 639.165,415.603 638.494,415.565C632.641,415.235 643.805,411.422 640.172,406.801Z" />
                </g>
                <g transform="matrix(2.91362,0,0,2.89653,104.483255,-968.578626)">
                    <path d="M536.206,340.21C541.551,336.14 540.804,340.974 544.192,346.649C546.297,350.175 539.898,348.617 539.649,348.791C538.915,349.305 538.109,353.706 537.98,353.877C534.049,359.101 536.569,347.989 533.468,347.693C527.506,347.123 532.065,344.568 536.206,340.21Z" />
                </g>
                <g transform="matrix(2.91362,0,0,2.89653,104.483255,-968.578626)">
                    <path d="M379.523,509.522C379.721,511.498 379.426,513.299 379.373,513.623C371.177,513.797 365.788,514.219 352.214,513.573L352.231,510.423C354.37,509.98 355.112,509.827 379.523,509.522Z" />
                </g>
                <g transform="matrix(2.91362,0,0,2.89653,105.483255,-969.578626)">
                    <path d="M367.902,613.585C369.266,608.625 368.464,607.304 370.471,607.906C371.346,608.169 373.842,612.181 375.243,611.134C380.705,607.053 378.77,612.348 378.581,612.569C376.497,615.008 377.111,615.331 379.093,617.738C381.217,620.317 369.282,619.924 368.411,619.895C365.195,619.789 367.15,618.243 367.902,613.585Z" />
                </g>
                <g transform="matrix(2.91362,0,0,2.89653,105.483255,-967.578626)">
                    <path d="M472.598,471.391C477.081,471.539 476.97,471.652 480.501,471.498C482.853,473.849 483.043,473.334 483.504,473.524C478.286,477.646 478.343,477.565 477.903,477.927C472.58,482.307 473.166,488.629 468.478,483.522C468.545,482.811 469.229,475.545 469.338,474.633C470.029,474.231 470.719,473.829 471.41,473.427C471.806,472.748 472.202,472.07 472.598,471.391Z" />
                </g>
                <g transform="matrix(2.91362,0,0,2.89653,104.483255,-968.578626)">
                    <path d="M336.046,479.879C333.561,476.542 330.845,475.654 334.621,473.742C343.159,469.419 343.764,470.66 343.856,471.417C344.258,474.706 343.16,475.456 346.328,476.775C351.098,478.761 342.306,479.856 341.826,481.585C340.106,487.79 337.601,481.738 336.046,479.879Z" />
                </g>
                <g transform="matrix(2.91362,0,0,2.89653,104.483255,-968.578626)">
                    <path d="M679.238,539.733C682.928,544.063 686.671,545.154 681.703,547.917C674.011,552.194 673.209,551.231 673.289,550.53C673.674,547.148 673.68,546.897 670.807,545.176C670.545,545.018 667.92,542.567 673.494,542.46C675.205,542.427 674.496,541.696 675.228,538.363C675.875,535.414 676.869,537.641 679.238,539.733Z" />
                </g>
                <g transform="matrix(2.91362,0,0,2.89653,104.483255,-968.578626)">
                    <path d="M565.694,359.362C571.051,366.262 583.612,356.313 578.112,363.235C577.26,364.307 567.11,368.647 564.869,365.248C564.394,364.528 555.157,350.511 562.373,354.757C562.764,354.987 562.619,355.098 565.694,359.362Z" />
                </g>
                <g transform="matrix(2.91362,0,0,2.89653,104.483255,-968.578626)">
                    <path d="M485.411,668.58C489.958,673.787 486.931,674.632 486.567,674.335C481.281,670.005 481.524,668.333 478.624,669.775C459.293,679.384 479.759,664.693 479.765,664.679C479.909,664.341 488.186,644.88 483.832,662.565C483.014,665.888 483.27,665.896 485.411,668.58Z" />
                </g>
                <g transform="matrix(2.91362,0,0,2.89653,104.483255,-968.578626)">
                    <path d="M442.497,660.49C448.972,658.608 448.929,658.616 449.489,658.457C452.62,657.574 457.508,666.797 457.584,667.491C458.365,674.678 450.487,662.209 448.524,662.678C448.025,662.797 429.497,667.221 442.497,660.49Z" />
                </g>
                <g transform="matrix(2.91362,0,0,2.89653,104.483255,-968.578626)">
                    <path d="M572.611,371.847C568.565,372.807 564.084,375.523 561.612,371.436C561.255,370.846 550.832,353.611 560.251,362.925C561.208,363.87 563.694,370.524 567.499,369.498C567.934,369.38 587.914,363.993 572.611,371.847Z" />
                </g>
                <g transform="matrix(2.91362,0,0,2.89653,104.483255,-968.578626)">
                    <path d="M450.185,359.308C463.02,342.545 451.37,363.939 451.147,364.277C448.299,368.589 438.737,364.056 438.314,362.555C436.581,356.407 445.032,366.235 450.185,359.308Z" />
                </g>
                <g transform="matrix(2.91362,0,0,2.89653,104.483255,-968.578626)">
                    <path d="M473.647,679.785C473.368,679.857 466.726,681.571 470.742,677.671C483.386,665.392 490.066,683.755 485.461,682.614C485.371,682.592 480.064,677.401 479.553,677.309C479.048,677.218 479.121,677.49 473.647,679.785Z" />
                </g>
                <g transform="matrix(2.91362,0,0,2.89653,104.483255,-968.578626)">
                    <path d="M354.39,450.283C363.043,444.858 356.883,442.093 358.277,438.368C360.376,432.756 363.167,446.702 363.331,447.522C364.172,451.726 344.428,459.061 354.39,450.283Z" />
                </g>
                <g transform="matrix(2.91362,0,0,2.89653,104.483255,-968.578626)">
                    <path d="M365.501,455.502C351.326,461.848 364.917,451.349 365.207,451.156C366.993,449.962 364.296,432.986 368.185,441.686C371.57,449.255 372.222,450.7 365.501,455.502Z" />
                </g>
                <g transform="matrix(2.91362,0,0,2.89653,104.483255,-968.578626)">
                    <path d="M648.185,576.589C647.554,571.193 646.526,570.747 648.545,569.583C648.907,569.374 672.385,558.775 653.649,570.715C649.519,573.348 652.93,580.455 652.637,581.575C651.403,586.3 648.353,577.097 648.185,576.589Z" />
                </g>
                <g transform="matrix(2.91362,0,0,2.89653,104.483255,-968.578626)">
                    <path d="M659.741,581.462C659.109,591.395 650.884,575.541 656.72,571.85C657.316,571.473 668.66,564.298 665.426,570.456C665.332,570.635 659.886,574.161 659.526,574.526C658.574,575.491 659.068,575.636 659.741,581.462Z" />
                </g>
                <g transform="matrix(2.91362,0,0,2.89653,104.483255,-968.578626)">
                    <path d="M455.766,368.671C452.255,373.301 451.563,374.375 442.576,371.357C441.538,371.008 438.442,367.169 444.525,368.353C450.921,369.598 451.412,369.094 454.933,363.811C466.678,346.191 455.965,368.331 455.766,368.671Z" />
                </g>
                <g transform="matrix(2.91362,0,0,2.89653,104.483255,-968.578626)">
                    <path d="M457.714,656.37C460.933,662.3 458.064,662.536 457.772,662.175C452.993,656.263 453.642,654.659 450.487,655.44C449.954,655.572 426.681,661.334 443.774,653.97C455.838,648.772 455.665,653.659 457.714,656.37Z" />
                </g>
                <g transform="matrix(2.91362,0,0,2.89653,104.483255,-968.578626)">
                    <path d="M535.338,377.487C533.512,382.735 529.602,376.726 532.704,374.927C535.077,373.551 535.319,377.194 535.338,377.487Z" />
                </g>
                <g transform="matrix(2.91362,0,0,2.89653,104.483255,-968.578626)">
                    <path d="M618.43,427.423C620.821,426.658 621.728,426.027 622.023,428.559C622.418,431.95 614.63,432.058 618.43,427.423Z" />
                </g>
                <g transform="matrix(2.91362,0,0,2.89653,104.483255,-968.578626)">
                    <path d="M536.276,369.468C534.67,374.732 530.654,369.122 533.636,366.715C535.852,364.927 536.051,366.675 536.276,369.468Z" />
                </g>
                <g transform="matrix(2.91362,0,0,2.89653,104.483255,-968.578626)">
                    <path d="M395.186,594.051C395.46,593.91 398.783,592.202 398.745,595.504C398.711,598.45 391.329,599.089 395.186,594.051Z" />
                </g>
                <g transform="matrix(2.91362,0,0,2.89653,104.483255,-968.578626)">
                    <path d="M388.474,599.475C390.772,598.505 391.801,597.952 392.007,600.545C392.177,602.687 385.543,605.885 388.474,599.475Z" />
                </g>
                <g transform="matrix(2.91362,0,0,2.89653,104.483255,-968.578626)">
                    <path d="M368.419,485.818C366.891,484.495 366.11,484.667 366.995,482.744C368.354,479.792 373.464,485.445 368.419,485.818Z" />
                </g>
                <g transform="matrix(2.91362,0,0,2.89653,104.483255,-968.578626)">
                    <path d="M485.04,654.441C482.25,660.199 479.665,653.058 482.273,652.043C484.645,651.121 484.502,652.112 485.04,654.441Z" />
                </g>
                <g transform="matrix(2.91362,0,0,2.89653,104.483255,-968.578626)">
                    <path d="M533.764,360.514C534.618,358.422 534.405,357.542 536.576,358.34C539.464,359.403 534.542,366.323 533.764,360.514Z" />
                </g>
                <g transform="matrix(2.91362,0,0,2.89653,104.483255,-968.578626)">
                    <path d="M361.386,479.935C366.867,484.942 359.05,484.191 358.71,482.441C358.265,480.153 359.09,480.333 361.386,479.935Z" />
                </g>
                <g transform="matrix(2.91362,0,0,2.89653,104.483255,-968.578626)">
                    <path d="M657.402,538.812C661.038,542.823 654.184,543.278 654.515,540.502C654.765,538.408 655.335,538.827 657.402,538.812Z" />
                </g>
                <g transform="matrix(2.91362,0,0,2.89653,104.483255,-968.578626)">
                    <path d="M352.4,481.848C350.814,480.334 349.952,480.072 351.522,478.522C353.36,476.709 358.155,481.189 352.4,481.848Z" />
                </g>
                <g transform="matrix(2.91362,0,0,2.89653,104.483255,-968.578626)">
                    <path d="M384.244,608.076C379.906,608.497 382.803,601.868 385.021,604.862C386.283,606.567 385.506,606.578 384.244,608.076Z" />
                </g>
                <g transform="matrix(2.91362,0,0,2.89653,104.483255,-968.578626)">
                    <path d="M624.728,422.737C626.751,421.475 627.336,420.488 628.209,422.634C629.426,425.627 622.586,427.756 624.728,422.737Z" />
                </g>
                <g transform="matrix(2.91362,0,0,2.89653,104.483255,-968.578626)">
                    <path d="M631.399,417.402C633.31,416.496 633.897,415.284 634.718,417.365C636.209,421.146 629.309,420.994 631.399,417.402Z" />
                </g>
                <g transform="matrix(2.91362,0,0,2.89653,104.483255,-968.578626)">
                    <path d="M663.355,543.856C663.179,543.639 661.133,541.114 663.448,540.36C666.055,539.511 668.892,544.455 663.355,543.856Z" />
                </g>
                <g transform="matrix(2.91362,0,0,2.89653,104.483255,-968.578626)">
                    <path d="M648.556,541.075C648.549,541.072 646.299,540.849 646.654,538.527C647.189,535.027 652.484,539.771 648.556,541.075Z" />
                </g>
                <g transform="matrix(2.91362,0,0,2.89653,104.483255,-968.578626)">
                    <path d="M485.849,646.588C481.154,651.797 481.719,644.613 483.296,644.024C485.581,643.172 485.526,644.142 485.849,646.588Z" />
                </g>
                <g transform="matrix(2.91362,0,0,2.89653,104.483255,-968.578626)">
                    <path d="M555.585,495.837C556.557,496.41 557.529,496.982 558.501,497.555C556.831,497.545 555.161,497.536 553.491,497.526C554.189,496.963 554.887,496.4 555.585,495.837Z" />
                </g>
                <g transform="matrix(2.91362,0,0,2.89653,104.483255,-968.578626)">
                    <path d="M524.113,558.585C524.557,559.23 525,559.875 525.444,560.52C525,559.875 524.557,559.23 524.113,558.585Z" />
                </g>
            </g>
        </g>
    </g>
</svg>
