<?xml version="1.0" encoding="UTF-8" standalone="no"?>
<!DOCTYPE svg PUBLIC "-//W3C//DTD SVG 1.1//EN" "http://www.w3.org/Graphics/SVG/1.1/DTD/svg11.dtd">
<svg width="100%" height="100%" viewBox="0 0 1536 1376" version="1.1" xmlns="http://www.w3.org/2000/svg" xmlns:xlink="http://www.w3.org/1999/xlink" xml:space="preserve" xmlns:serif="http://www.serif.com/" style="fill-rule:evenodd;clip-rule:evenodd;stroke-linejoin:round;stroke-miterlimit:2;">
    <g transform="matrix(1,0,0,1,-1586,0)">
        <rect id="Artboard2" x="1586" y="0" width="1536" height="1376" style="fill:none;"/>
        <g id="Artboard21" serif:id="Artboard2">
            <g transform="matrix(1.174805,0,0,1.174805,1846.246496,364.514813)">
                <path d="M727.558,305.229C725.907,306.202 660.342,348.619 646.611,347.328C635.498,346.284 636.237,343.616 373.303,187.962C223.247,99.131 222.096,96.768 221.243,98.983C219.766,102.815 222.698,176.571 227.771,184.916C238.016,201.767 241.187,198.651 342.195,260.289C432.78,315.567 433.137,314.567 525.103,367.717C643.837,436.337 643.074,444.392 654.686,439.36C658.067,437.895 846.398,326.832 847.186,323.248C853.728,293.513 840.72,261.644 847.262,231.908C845.09,233.427 844.443,236.578 842.272,238.097C808.692,261.587 804.387,254.327 771.649,278.777C769.205,280.602 771.263,334.094 768.399,337.413C767.672,338.255 730.934,362.196 729.333,357.14C727.47,351.263 728.006,310.612 728.059,306.565L727.558,305.229" style="fill:rgb(254,254,254);stroke:black;stroke-width:2.55px;"/>
            </g>
            <g transform="matrix(1.174805,0,0,1.174805,1846.246496,367.514813)">
                <path d="M611.5,123.523C594.45,124.769 593.245,124.025 593.958,122.814C599.032,114.199 598.679,105.108 594.506,95.971C577.302,58.305 495.176,19.857 460.619,10.731C380.419,-10.447 321.538,30.343 237.626,81.101C233.283,83.729 228.693,86.139 225.012,89.634C223.445,91.123 223.959,94.077 222.392,95.566C637.732,341.164 637.305,342.651 645.715,344.038C661.767,346.685 715.215,310.899 720.773,307.177C723.733,305.196 724.24,300.622 727.2,298.641L553.438,192.579C553.806,192.277 556.422,184.689 566.436,181.915C584.062,177.033 607.714,191.111 608.248,191.389C633.688,204.62 759.772,277.903 769.299,276.392C774.11,275.629 844.898,235.645 846.965,229.864C849.416,223.007 844.314,224.44 795.443,200.44C772.105,188.978 697.163,145.737 684.531,139.958C679.086,137.466 648.564,123.501 611.5,123.523" style="fill:rgb(254,254,254);fill-opacity:1;stroke:black;stroke-width:2.55px;"/>
            </g>
            <g transform="matrix(1.174805,0,0,1.174805,1846.246496,367.514813)">
                <path d="M464.627,104.294C453.788,98.11 443.447,91.085 432.665,84.804C410.454,71.865 409.016,79.607 384.33,86.066C400.393,95.833 415.48,107.147 431.543,116.914C448.074,126.966 464.74,136.876 482.063,145.493C484.255,146.583 500.101,136.234 491.69,123.682C488.04,118.235 466.915,105.657 464.627,104.294" style="fill:rgb(254,254,254);stroke:black;stroke-width:2.55px;"/>
            </g>
            <g transform="matrix(1.174805,0,0,1.174805,1846.246496,367.514813)">
                <path d="M132.393,143.319C173.405,119.976 173.166,115.2 183.855,119.068C195.705,123.355 260.9,158.95 253.79,165.816C250.554,168.941 176.031,212.776 175.71,213.158C172.818,216.6 174.481,219.037 220.977,246.479C234.477,254.447 246.751,265.282 261.699,270.001C264.745,270.962 338.952,223.529 345.497,226.515C354.614,230.675 408.651,262.177 413.504,267.926C417.313,272.439 411.957,272.203 345.594,313.628C339.887,317.191 352.466,325.591 353.455,326.252C361.235,331.447 426.367,368.319 434.618,372.206C436.477,373.082 449.953,365.441 451.221,364.722C492.44,341.35 492.346,341.679 533.499,318.62C596.959,363.205 600.913,363.316 597.977,366.702C591.588,374.071 482.44,450.176 435.54,452.83C429.977,453.145 404.339,454.596 368.522,433.852C301.445,395.004 55.445,249.204 18.954,225.213C9.796,219.192 20.724,210.809 21.701,210.059C30.579,203.249 30.836,203.912 132.393,143.319" style="fill:rgb(254,254,254);stroke:black;stroke-width:2.55px;"/>
            </g>
            <g transform="matrix(1.174805,0,0,1.174805,1846.246496,361.514813)">
                <path d="M17.27,226.812C25.355,235.08 360.343,433.765 385.125,444.897C389.753,446.976 422.168,463.087 459.469,451.253C488.787,441.951 598.818,371.725 598.85,374.384C598.933,381.117 599.793,451.557 597.962,458.552C596.04,465.891 542.762,497.792 537.711,500.817C442.022,558.112 425.487,559.281 341.939,511.544C326.496,502.72 326.933,502.364 150.677,398.211C26.553,324.864 22.724,327.974 17.22,314.85C14.518,308.407 17.82,308.035 15.639,227.524C16.189,226.821 16.142,227.08 17.27,226.812" style="fill:rgb(254,254,254);stroke:black;stroke-width:2.55px;"/>
            </g>
            <g transform="matrix(1.174805,0,0,1.174805,1846.246496,367.514813)">
                <path d="M592.48,183.738C622.601,198.224 645.989,212.366 666.04,223.411C739.974,264.138 759.639,273.49 770.741,277.782C771.169,277.947 771.695,332.013 768.968,334.515C767.306,336.04 765.748,336.709 752.11,344.369C747.374,347.029 739.973,350.533 732.259,355.208C727.718,357.961 727.47,351.392 727.122,304.265C727.045,293.852 723.313,293.965 710.786,287.323C707.015,285.323 703.408,282.232 697.655,278.662C650.24,249.237 548.875,193.521 552.121,191.011C559.806,185.07 564.67,181.056 571.276,180.274C581.367,179.079 591.712,183.369 592.48,183.738" style="fill:rgb(254,254,254);stroke:black;stroke-width:2.55px;"/>
            </g>
            <g transform="matrix(1.174805,0,0,1.174805,1846.246496,367.514813)">
                <path d="M242.341,254.036C234.21,255.308 189.383,227.201 175.36,215.885C171.757,212.977 176.417,212.628 253.796,165.38C253.837,171.888 254.308,246.732 254.308,246.732C253.792,247.728 253.324,246.974 242.341,254.036" style="fill:white;stroke:black;stroke-width:2.55px;"/>
            </g>
            <g transform="matrix(1.174805,0,0,1.174805,1846.246496,367.514813)">
                <path d="M368.416,334.479C366.268,333.25 341.924,317.688 343.974,315.219C347.254,311.268 369.835,302.623 413.773,270.538C408.343,347.138 412.698,352.022 403.338,353.231C400.559,353.59 377.577,340.025 371.583,336.59L368.416,334.479Z" style="fill:white;stroke:black;stroke-width:2.55px;"/>
            </g>
        </g>
    </g>
</svg>
